/* XPM */
static char * mayorg_int_xpm[] = {
"32 32 8 1",
" 	c None",
".	c #000040",
"+	c #ECE51D",
"@	c #EAE31D",
"#	c #DFD81E",
"$	c #C3BD23",
"%	c #908C2A",
"&	c #373537",
"                                ",
"                                ",
"     ..                .   .    ",
"     . .               .   .    ",
"     .  .              .....    ",
"     .  .              .   .    ",
"     . .               .   .    ",
"     ..                .   .    ",
"                                ",
"   ..........................   ",
"   ..........................   ",
"   ..............+++++@#$%&..   ",
"              ...+++++++++++    ",
"              ...+++++++++++    ",
"              ...++    ++++++   ",
"              ...       +++++   ",
"              ...       +++++   ",
"              ...      ++++++   ",
"              ...     ++++++    ",
"              ...    ++++++     ",
"              ...    +++++      ",
"              ...   ++++++      ",
"              ...   +++++       ",
"              ...   +++++       ",
"              ...               ",
"              ...               ",
"              ...   +++++       ",
"              ...   +++++       ",
"              ...   +++++       ",
"              ...   +++++       ",
"              ...   +++++       ",
"                                "};
