/* XPM */
static char *salir[]={
"32 32 5 1",
". c None",
"# c #000000",
"c c #0000c0",
"a c #808000",
"b c #c0c000",
"................................",
"................................",
"................................",
".............#..................",
"...........###..................",
"........###aa#..................",
"....####aaaaa#######............",
"....#aaaaaaaa#bbbbb#............",
"....#aaaaaaaa#bbbbb#............",
"....#aaaaaaaa#bbbbb#...c........",
"....#aaaaaaaa#bbbbb#..cc........",
"....#aaaaaaaa#bbbbb#.ccc........",
"....#aaaaaaaa#bbbbb#cccc........",
"....#aaaaaaaa#bbbbbcccccccccccc.",
"....#aaaaa##a#bbbbccccccccccccc.",
"....#aaaaa##a#bbbcccccccccccccc.",
"....#aaaaaaaa#bbbcccccccccccccc.",
"....#aaaaaaaa#bbbbccccccccccccc.",
"....#aaaaaaaa#bbbbbcccccccccccc.",
"....#aaaaaaaa#bbbbb#cccc........",
"....#aaaaaaaa#bbbbb#.ccc........",
"....#aaaaaaaa#bbbbb#..cc........",
"....#aaaaaaaa#bbbbb#...c........",
"....#aaaaaaaa#bbbbb#............",
"....#aaaaaaaa#bbbbb#............",
"....####aaaaa#######............",
"........###aa#..................",
"...........###..................",
"................................",
"................................",
"................................",
"................................"};
